<svg width="612" height="383" viewBox="0 0 612 383" fill="none" xmlns="http://www.w3.org/2000/svg">
<path d="M306 383C437.069 383 543.321 377.79 543.321 371.363C543.321 364.936 437.069 359.726 306 359.726C174.931 359.726 68.6786 364.936 68.6786 371.363C68.6786 377.79 174.931 383 306 383Z" fill="#F5F5F5"/>
<path d="M612 336.574H0V336.831H612V336.574Z" fill="#EBEBEB"/>
<path d="M165.411 353.115H124.872V353.372H165.411V353.115Z" fill="#EBEBEB"/>
<path d="M262.781 345.333H209.475V345.59H262.781V345.333Z" fill="#EBEBEB"/>
<path d="M123.648 343.575H64.211V343.832H123.648V343.575Z" fill="#EBEBEB"/>
<path d="M345.046 347.05H303.075V347.307H345.046V347.05Z" fill="#EBEBEB"/>
<path d="M415.389 347.05H355.939V347.307H415.389V347.05Z" fill="#EBEBEB"/>
<path d="M514.447 351.388H399.783V351.645H514.447V351.388Z" fill="#EBEBEB"/>
<path d="M290.088 290.725H53.7458C51.8944 290.722 50.1198 290.102 48.8118 289.002C47.5037 287.901 46.769 286.41 46.769 284.855V5.81861C46.7852 4.27249 47.5269 2.79414 48.8332 1.70469C50.1396 0.615228 51.9049 0.00264858 53.7458 0H290.088C291.942 0 293.719 0.618446 295.03 1.71929C296.341 2.82013 297.077 4.31318 297.077 5.87001V284.855C297.077 286.412 296.341 287.905 295.03 289.005C293.719 290.106 291.942 290.725 290.088 290.725ZM53.7458 0.205605C51.9755 0.208328 50.2788 0.800896 49.0281 1.85324C47.7775 2.90559 47.075 4.33173 47.075 5.81861V284.855C47.075 286.342 47.7775 287.768 49.0281 288.82C50.2788 289.872 51.9755 290.465 53.7458 290.468H290.088C291.859 290.462 293.555 289.869 294.807 288.818C296.058 287.766 296.765 286.342 296.771 284.855V5.81861C296.765 4.33161 296.058 2.90707 294.807 1.8556C293.555 0.80413 291.859 0.211022 290.088 0.205605H53.7458Z" fill="#EBEBEB"/>
<path d="M554.851 290.725H318.497C316.645 290.719 314.871 290.099 313.562 288.999C312.253 287.9 311.514 286.41 311.508 284.855V5.81861C311.527 4.27155 312.272 2.79322 313.58 1.70404C314.888 0.614869 316.655 0.0026197 318.497 0H554.851C556.69 0.00535034 558.452 0.619126 559.756 1.70829C561.06 2.79746 561.8 4.27426 561.816 5.81861V284.855C561.818 285.624 561.639 286.386 561.29 287.098C560.94 287.809 560.428 288.456 559.781 289.001C559.134 289.546 558.366 289.979 557.52 290.275C556.675 290.57 555.768 290.723 554.851 290.725ZM318.497 0.205605C316.727 0.211022 315.03 0.80413 313.778 1.8556C312.527 2.90707 311.82 4.33161 311.814 5.81861V284.855C311.82 286.342 312.527 287.766 313.778 288.818C315.03 289.869 316.727 290.462 318.497 290.468H554.851C556.622 290.462 558.318 289.869 559.57 288.818C560.822 287.766 561.528 286.342 561.534 284.855V5.81861C561.528 4.33161 560.822 2.90707 559.57 1.8556C558.318 0.80413 556.622 0.211022 554.851 0.205605H318.497Z" fill="#EBEBEB"/>
<path d="M269.304 102.021H149.634V336.574H269.304V102.021Z" fill="#803D86" fill-opacity="0.78"/>
<path d="M251.189 102.021H131.519V336.574H251.189V102.021Z" fill="#F0F0F0"/>
<path d="M240.492 280.599H143.122V323.056H240.492V280.599Z" fill="#803D86" fill-opacity="0.78"/>
<path d="M240.492 224.911H143.122V267.378H240.492V224.911Z" fill="#803D86" fill-opacity="0.78"/>
<path d="M240.492 169.233H143.122V211.701H240.492V169.233Z" fill="#803D86" fill-opacity="0.78"/>
<path d="M240.492 113.555H143.122V156.023H240.492V113.555Z" fill="#803D86" fill-opacity="0.78"/>
<path opacity="0.05" d="M163.465 113.555H143.122V156.023H163.465V113.555Z" fill="#9796F0"/>
<path opacity="0.05" d="M163.465 169.233H143.122V211.701H163.465V169.233Z" fill="#9796F0"/>
<path opacity="0.05" d="M163.465 224.911H143.122V267.378H163.465V224.911Z" fill="#9796F0"/>
<path opacity="0.05" d="M163.465 280.599H143.122V323.056H163.465V280.599Z" fill="#9796F0"/>
<path d="M158.936 24.4361H73.44V96.2434H158.936V24.4361Z" fill="#803D86" fill-opacity="0.78"/>
<path d="M154.457 24.4361H68.9602V96.2434H154.457V24.4361Z" fill="#EBEBEB"/>
<path d="M144.628 32.7014H78.8011V87.9884H144.628V32.7014Z" fill="#F5F5F5"/>
<path d="M80.9798 32.7014H78.8011V87.9884H80.9798V32.7014Z" fill="#803D86" fill-opacity="0.78"/>
<path d="M121.66 68.175C126.821 63.951 126.928 57.0129 121.899 52.6783C116.869 48.3438 108.609 48.2542 103.448 52.4782C98.2869 56.7022 98.1802 63.6403 103.209 67.9749C108.239 72.3094 116.499 72.399 121.66 68.175Z" fill="#FAFAFA"/>
<path d="M68.7398 319.191C68.7398 319.191 61.9956 314.308 57.3322 303.133C52.6687 291.958 41.8608 279.149 41.8608 279.149C41.8608 279.149 55.998 284.762 60.9797 295.443C60.9797 295.443 54.8597 273.793 41.8608 265.877C41.8608 265.877 65.1168 272.169 70.9553 292.534C70.9553 292.534 74.8354 276.363 68.5073 260.295C68.5073 260.295 80.4168 272.868 81.8121 288.463C81.8121 288.463 83.4646 261.457 94.0521 253.51C94.0521 253.51 90.7229 277.957 94.0521 290.293C94.0521 290.293 98.7646 268.643 119.83 265.62C119.83 265.62 106.243 279.355 106.806 291.455C109.176 287.275 112.797 283.684 117.316 281.033C121.835 278.382 127.096 276.762 132.584 276.332C132.584 276.332 117.504 285.204 116.145 299.638C114.787 314.071 114.75 318.492 105.607 320.589C96.4634 322.686 68.7398 319.191 68.7398 319.191Z" fill="#F5F5F5"/>
<path d="M54.113 305.981V334.107C54.113 334.107 58.4215 344.182 86.0962 345.477C113.771 346.772 120.234 334.364 120.234 334.364V305.981H54.113Z" fill="#E6E6E6"/>
<path d="M545.414 226.453H372.035V337.428H545.414V226.453Z" fill="#803D86" fill-opacity="0.78"/>
<path d="M502.244 226.453H328.864V337.428H502.244V226.453Z" fill="#EBEBEB"/>
<path d="M493.615 236.723H335.058V277.833H493.615V236.723Z" stroke="#803D86" stroke-opacity="0.78" stroke-miterlimit="10"/>
<path d="M493.615 284.68H335.058V325.791H493.615V284.68Z" stroke="#803D86" stroke-opacity="0.78" stroke-miterlimit="10"/>
<path d="M414.336 261.005C416.79 261.005 418.779 259.334 418.779 257.273C418.779 255.212 416.79 253.541 414.336 253.541C411.882 253.541 409.893 255.212 409.893 257.273C409.893 259.334 411.882 261.005 414.336 261.005Z" fill="#803D86" fill-opacity="0.78"/>
<path d="M414.336 312.097C416.79 312.097 418.779 310.427 418.779 308.366C418.779 306.305 416.79 304.634 414.336 304.634C411.882 304.634 409.893 306.305 409.893 308.366C409.893 310.427 411.882 312.097 414.336 312.097Z" fill="#803D86" fill-opacity="0.78"/>
<path d="M551.865 220.531H321.227V226.453H551.865V220.531Z" fill="#803D86" fill-opacity="0.78"/>
<path opacity="0.05" d="M551.865 220.531H508.792V226.453H551.865V220.531Z" fill="#9796F0"/>
<path d="M549.368 55.0197H357.347V146.205H549.368V55.0197Z" fill="#803D86" fill-opacity="0.78"/>
<path d="M544.349 55.0197H352.328V146.205H544.349V55.0197Z" fill="#F0F0F0"/>
<path d="M536.271 61.9075H359.819V139.76H536.271V61.9075Z" fill="#F5F5F5"/>
<path d="M361.741 61.9075H359.819V139.76H361.741V61.9075Z" fill="#803D86" fill-opacity="0.78"/>
<path d="M526.9 86.5703L504.59 79.5345L497.744 94.8466L520.055 101.882L526.9 86.5703Z" fill="#FAFAFA"/>
<path d="M506.271 83.3726C506.737 83.3726 507.115 83.055 507.115 82.6633C507.115 82.2715 506.737 81.9539 506.271 81.9539C505.804 81.9539 505.426 82.2715 505.426 82.6633C505.426 83.055 505.804 83.3726 506.271 83.3726Z" fill="#E6E6E6"/>
<path d="M419.587 106.637L467.054 110.646L464.153 126.498L418.449 121.903L419.587 106.637Z" fill="#FAFAFA"/>
<path d="M464.569 113.555C464.569 113.696 464.52 113.833 464.427 113.949C464.334 114.066 464.202 114.157 464.048 114.211C463.894 114.264 463.724 114.278 463.56 114.251C463.396 114.224 463.246 114.156 463.127 114.057C463.009 113.958 462.929 113.831 462.896 113.694C462.864 113.556 462.881 113.414 462.944 113.284C463.008 113.154 463.117 113.044 463.255 112.966C463.394 112.888 463.558 112.846 463.725 112.846C463.949 112.846 464.163 112.921 464.322 113.054C464.48 113.187 464.569 113.367 464.569 113.555Z" fill="#E6E6E6"/>
<path d="M445.536 220.531L456.026 175.504H505.145L494.937 220.531H445.536Z" fill="#EBEBEB"/>
<path d="M453.015 214.888L460.873 181.148H497.678L490.028 214.888H453.015Z" fill="#FAFAFA"/>
<path d="M462.77 181.148L455.157 214.888H453.015L460.873 181.148H462.77Z" fill="#E6E6E6"/>
<path d="M505.145 175.504H507.177L497.678 220.531H494.937L505.145 175.504Z" fill="#E6E6E6"/>
<path d="M503.7 191.932L510.665 220.531H497.678L503.7 191.932Z" fill="#803D86" fill-opacity="0.78"/>
<path d="M396.821 46.5489V169.696C396.822 171.696 396.355 173.677 395.444 175.525C394.534 177.374 393.199 179.053 391.516 180.468C389.832 181.883 387.833 183.005 385.633 183.771C383.433 184.537 381.075 184.931 378.693 184.931H364.14V46.5489H396.821Z" fill="#9796F0"/>
<path opacity="0.8" d="M396.821 46.5489V169.696C396.822 171.696 396.355 173.677 395.444 175.525C394.534 177.374 393.199 179.053 391.516 180.468C389.832 181.883 387.833 183.005 385.633 183.771C383.433 184.537 381.075 184.931 378.693 184.931H364.14V46.5489H396.821Z" fill="#FBC7D4" fill-opacity="0.66"/>
<path d="M396.821 37.1939V169.696C396.822 171.696 396.354 173.677 395.444 175.525C394.534 177.374 393.199 179.053 391.515 180.468C389.832 181.883 387.833 183.005 385.633 183.771C383.433 184.537 381.075 184.931 378.693 184.931H122.473C117.662 184.931 113.048 183.326 109.646 180.469C106.245 177.611 104.334 173.736 104.334 169.696V37.1939C104.332 35.1928 104.8 33.211 105.711 31.362C106.622 29.513 107.958 27.8329 109.643 26.4179C111.328 25.0029 113.328 23.8807 115.53 23.1156C117.731 22.3504 120.091 21.9572 122.473 21.9586H378.693C381.075 21.9586 383.433 22.3527 385.633 23.1185C387.833 23.8843 389.832 25.0067 391.515 26.4215C393.199 27.8364 394.534 29.516 395.444 31.3644C396.354 33.2127 396.822 35.1936 396.821 37.1939Z" fill="#FBC7D4" fill-opacity="0.66" stroke="#9796F0" stroke-miterlimit="10"/>
<path d="M395.988 32.6192H105.166C106.325 29.5268 108.628 26.8256 111.741 24.9083C114.854 22.9911 118.613 21.9577 122.473 21.9586H378.693C382.551 21.9599 386.308 22.9943 389.418 24.9114C392.529 26.8285 394.83 29.5285 395.988 32.6192Z" fill="#9796F0"/>
<path d="M141.299 29.4529C142.718 29.4529 143.869 28.4863 143.869 27.294C143.869 26.1017 142.718 25.1352 141.299 25.1352C139.879 25.1352 138.728 26.1017 138.728 27.294C138.728 28.4863 139.879 29.4529 141.299 29.4529Z" fill="#FBC7D4" fill-opacity="0.66"/>
<path d="M150.479 29.4529C151.898 29.4529 153.049 28.4863 153.049 27.294C153.049 26.1017 151.898 25.1352 150.479 25.1352C149.059 25.1352 147.908 26.1017 147.908 27.294C147.908 28.4863 149.059 29.4529 150.479 29.4529Z" fill="#FBC7D4" fill-opacity="0.66"/>
<path d="M162.217 27.2941C162.217 27.7235 162.065 28.1433 161.781 28.5002C161.496 28.8572 161.092 29.1352 160.62 29.299C160.147 29.4629 159.627 29.5053 159.126 29.4207C158.624 29.3362 158.164 29.1286 157.804 28.8242C157.443 28.5198 157.198 28.1323 157.1 27.7109C157.001 27.2894 157.054 26.853 157.252 26.4568C157.449 26.0607 157.782 25.7226 158.208 25.4855C158.634 25.2484 159.135 25.1229 159.646 25.1249C159.985 25.1249 160.32 25.1811 160.633 25.2902C160.945 25.3994 161.229 25.5593 161.468 25.7609C161.707 25.9624 161.896 26.2016 162.025 26.4647C162.153 26.7279 162.218 27.0097 162.217 27.2941Z" fill="#FBC7D4" fill-opacity="0.66"/>
<path d="M396.821 37.1939V46.5489H104.285V37.1939C104.285 35.6424 104.565 34.0999 105.117 32.6192H395.94C396.508 34.0977 396.805 35.6403 396.821 37.1939Z" fill="#9796F0"/>
<path opacity="0.5" d="M396.821 37.1939V46.5489H104.285V37.1939C104.285 35.6424 104.565 34.0999 105.117 32.6192H395.94C396.508 34.0977 396.805 35.6403 396.821 37.1939Z" fill="#FBC7D4" fill-opacity="0.66"/>
<path d="M138.74 46.5489V184.931H122.07C118.149 184.958 114.319 183.94 111.132 182.022C107.945 180.104 105.565 177.387 104.334 174.26V46.5489H138.74Z" fill="#9796F0"/>
<path opacity="0.1" d="M138.74 46.5489V184.931H122.07C118.149 184.958 114.319 183.94 111.132 182.022C107.945 180.104 105.565 177.387 104.334 174.26V46.5489H138.74Z" fill="#9796F0"/>
<path opacity="0.1" d="M352.671 56.3562H150.479V170.97H352.671V56.3562Z" fill="#9796F0"/>
<path opacity="0.2" d="M118.3 62.1337H109.609V69.4327H118.3V62.1337Z" fill="#9796F0"/>
<path opacity="0.2" d="M131.458 62.1337H122.767V69.4327H131.458V62.1337Z" fill="#9796F0"/>
<path d="M271.801 113.206C279.207 105.146 284.041 94.5678 283.038 84.2362C282.095 74.5419 272.781 68.6308 261.471 70.9541C256.697 71.9822 252.328 73.9354 247.921 75.7756C240.577 78.8596 232.842 81.4914 224.665 82.3241C216.489 83.1568 208.398 82.3241 200.43 84.9455C186.562 89.4894 182.706 104.375 188.055 115.169C192.804 124.751 204.114 132.152 216.146 134.208" stroke="#9796F0" stroke-linecap="round" stroke-linejoin="round"/>
<path opacity="0.2" d="M118.3 73.7092H109.609V81.0082H118.3V73.7092Z" fill="#9796F0"/>
<path opacity="0.2" d="M131.458 73.7092H122.767V81.0082H131.458V73.7092Z" fill="#9796F0"/>
<path opacity="0.2" d="M118.3 85.2848H109.609V92.5837H118.3V85.2848Z" fill="#9796F0"/>
<path opacity="0.2" d="M131.458 85.2848H122.767V92.5837H131.458V85.2848Z" fill="#9796F0"/>
<path opacity="0.2" d="M118.3 96.8603H109.609V104.159H118.3V96.8603Z" fill="#9796F0"/>
<path opacity="0.2" d="M131.458 96.8603H122.767V104.159H131.458V96.8603Z" fill="#9796F0"/>
<path opacity="0.2" d="M118.3 108.426H109.609V115.725H118.3V108.426Z" fill="#9796F0"/>
<path opacity="0.2" d="M131.458 108.426H122.767V115.725H131.458V108.426Z" fill="#9796F0"/>
<path opacity="0.2" d="M118.3 120.001H109.609V127.3H118.3V120.001Z" fill="#9796F0"/>
<path opacity="0.2" d="M131.458 120.001H122.767V127.3H131.458V120.001Z" fill="#9796F0"/>
<path d="M118.018 131.248C118.018 131.413 117.96 131.574 117.85 131.711C117.741 131.848 117.585 131.955 117.403 132.018C117.221 132.081 117.021 132.096 116.829 132.064C116.636 132.031 116.459 131.95 116.321 131.833C116.183 131.715 116.09 131.566 116.053 131.404C116.016 131.242 116.037 131.074 116.114 130.922C116.191 130.77 116.32 130.641 116.485 130.55C116.649 130.46 116.842 130.413 117.039 130.415C117.169 130.415 117.297 130.437 117.416 130.479C117.536 130.52 117.645 130.582 117.736 130.659C117.827 130.737 117.899 130.829 117.947 130.93C117.996 131.031 118.02 131.139 118.018 131.248Z" fill="#9796F0"/>
<path d="M121.58 131.248C121.58 131.412 121.522 131.573 121.413 131.71C121.304 131.847 121.149 131.954 120.968 132.017C120.787 132.08 120.587 132.096 120.395 132.064C120.203 132.032 120.026 131.953 119.887 131.836C119.749 131.72 119.654 131.572 119.616 131.41C119.578 131.249 119.597 131.081 119.672 130.929C119.748 130.777 119.875 130.647 120.038 130.555C120.201 130.464 120.392 130.415 120.588 130.415C120.719 130.414 120.849 130.434 120.97 130.476C121.091 130.517 121.201 130.578 121.293 130.656C121.386 130.733 121.459 130.826 121.508 130.927C121.557 131.029 121.582 131.138 121.58 131.248Z" fill="#9796F0"/>
<path d="M125.13 131.248C125.13 131.413 125.071 131.574 124.962 131.711C124.852 131.848 124.696 131.955 124.515 132.018C124.333 132.081 124.133 132.096 123.94 132.064C123.747 132.031 123.571 131.95 123.433 131.833C123.295 131.715 123.201 131.566 123.164 131.404C123.127 131.242 123.149 131.074 123.226 130.922C123.303 130.77 123.432 130.641 123.596 130.55C123.761 130.46 123.954 130.413 124.15 130.415C124.28 130.415 124.408 130.437 124.528 130.479C124.647 130.52 124.756 130.582 124.847 130.659C124.938 130.737 125.01 130.829 125.059 130.93C125.107 131.031 125.131 131.139 125.13 131.248Z" fill="#9796F0"/>
<path d="M246.146 123.445L244.592 124.36L243.662 118.654L249.329 121.553L247.921 122.355L250.112 125.069L248.386 126.262L246.146 123.445Z" fill="#9796F0"/>
<path d="M364.874 186.165C364.874 186.165 358.632 211.474 354.409 217.941C350.186 224.407 325.976 224.109 325.976 224.109L297.946 222.937C297.946 222.937 292.609 208.267 315.462 215.874C315.462 215.874 334.74 212.79 342.096 207.65L349.807 181.096L364.874 186.165Z" fill="#FF8B7B"/>
<path d="M448.29 374.848H440.811L420.517 282.13L419.82 278.933L427.041 277.813L427.984 282.13L448.29 374.848Z" fill="#9796F0"/>
<path opacity="0.5" d="M448.29 374.848H440.811L420.517 282.13L419.82 278.933L427.041 277.813L427.984 282.13L448.29 374.848Z" fill="#FBC7D4" fill-opacity="0.66"/>
<path d="M416.038 374.848H408.657L398.522 282.13L397.445 272.261L397.2 270.072L404.508 269.506L404.814 272.261L405.891 282.13L416.038 374.848Z" fill="#9796F0"/>
<path opacity="0.5" d="M416.038 374.848H408.657L398.522 282.13L397.445 272.261L397.2 270.072L404.508 269.506L404.814 272.261L405.891 282.13L416.038 374.848Z" fill="#FBC7D4" fill-opacity="0.66"/>
<path d="M340.566 273.433L339.782 282.13L331.386 374.848H324.017L332.402 282.13L333.234 272.971L340.566 273.433Z" fill="#9796F0"/>
<path opacity="0.5" d="M340.566 273.433L339.782 282.13L331.386 374.848H324.017L332.402 282.13L333.234 272.971L340.566 273.433Z" fill="#FBC7D4" fill-opacity="0.66"/>
<path d="M319.28 273.711L317.628 282.13L299.427 374.848H291.985L310.198 282.13L312.047 272.703L319.28 273.711Z" fill="#9796F0"/>
<path opacity="0.5" d="M319.28 273.711L317.628 282.13L299.427 374.848H291.985L310.198 282.13L312.047 272.703L319.28 273.711Z" fill="#FBC7D4" fill-opacity="0.66"/>
<path d="M439.318 270.812L438.645 272.261L435.426 279.098C435.012 279.995 434.284 280.765 433.337 281.306C432.391 281.848 431.271 282.135 430.126 282.13H308.876C307.7 282.132 306.551 281.829 305.587 281.263C304.624 280.696 303.891 279.893 303.491 278.964L300.639 272.261L299.966 270.668C299.657 269.945 299.56 269.171 299.683 268.41C299.806 267.649 300.146 266.925 300.673 266.297C301.2 265.67 301.899 265.159 302.711 264.807C303.524 264.454 304.425 264.272 305.339 264.274H434.018C434.947 264.273 435.862 264.463 436.683 264.827C437.505 265.191 438.207 265.719 438.73 266.364C439.253 267.009 439.58 267.751 439.682 268.526C439.785 269.302 439.66 270.086 439.318 270.812Z" fill="#9796F0"/>
<path opacity="0.3" d="M438.645 272.261L435.426 279.098C435.012 279.995 434.284 280.765 433.337 281.306C432.391 281.848 431.271 282.135 430.126 282.13H308.876C307.7 282.132 306.551 281.829 305.587 281.263C304.624 280.696 303.891 279.893 303.491 278.964L300.639 272.261H438.645Z" fill="#9796F0"/>
<path d="M315.853 331.373L321.582 320.445C321.914 319.808 322.511 319.294 323.26 318.999C324.01 318.704 324.862 318.648 325.657 318.841L334.715 321C335.189 321.114 335.628 321.312 336.002 321.581C336.377 321.85 336.678 322.184 336.886 322.559C337.094 322.934 337.203 323.343 337.207 323.757C337.21 324.17 337.108 324.58 336.906 324.958C334.458 329.605 329.807 338.26 328.338 341.355C326.343 345.662 324.666 350.854 321.998 352.303C321.834 352.394 321.662 352.473 321.484 352.54C320.922 352.734 320.308 352.797 319.706 352.724C319.105 352.651 318.538 352.443 318.065 352.122C317.592 351.802 317.231 351.38 317.018 350.902C316.806 350.424 316.75 349.907 316.857 349.404C317.567 345.786 318.338 339.021 315.743 333.562C315.585 333.21 315.513 332.834 315.532 332.458C315.551 332.082 315.66 331.713 315.853 331.373Z" fill="#9796F0"/>
<path d="M365.315 227.501C365.315 227.501 303.442 220.408 284.751 235.17C284.751 235.17 273.172 248.442 278.742 274.42C282.384 290.453 290.297 305.586 301.887 318.687L318.13 307.091C318.13 307.091 303.674 277.186 308.57 258.681L331.043 257.561L363.271 239.056L366.649 231.387L365.315 227.501Z" fill="#9796F0"/>
<path d="M303.381 323.909L297.322 317.731L319.525 302.393L323.724 306.063L303.381 323.909Z" fill="#9796F0"/>
<path d="M426.136 226.936C426.136 226.936 427.849 241.739 422.256 252.575C416.662 263.41 396.894 267.378 383.565 266.659C370.236 265.939 353.038 265.014 345.731 266.741C345.731 266.741 336.27 311.799 319.929 344.655L300.149 343.216C300.149 343.216 310.896 279.622 312.622 264.849C314.348 250.077 313.479 247.877 324.225 240.66C334.972 233.443 390.015 223.687 426.136 226.936Z" fill="#9796F0"/>
<path d="M314.898 350.607L313.026 357.484L297.322 362.1L301.887 347.451L314.898 350.607Z" fill="#FF8B7B"/>
<path d="M297.114 361.669L310.455 357.505C311.232 357.264 312.087 357.268 312.861 357.516C313.635 357.763 314.276 358.238 314.666 358.852L319.121 365.811C319.363 366.178 319.507 366.584 319.543 367.002C319.579 367.42 319.505 367.839 319.328 368.23C319.151 368.622 318.874 368.976 318.517 369.269C318.16 369.561 317.731 369.785 317.261 369.924C311.569 371.661 300.957 374.909 297.322 376.205C292.254 378.014 286.649 380.615 283.552 380.008C283.361 379.975 283.173 379.93 282.989 379.875C282.431 379.67 281.949 379.342 281.593 378.927C281.238 378.512 281.021 378.025 280.966 377.515C280.911 377.006 281.02 376.494 281.281 376.032C281.542 375.57 281.946 375.175 282.45 374.889C286.037 372.833 292.352 368.556 295.204 363.19C295.383 362.841 295.645 362.526 295.973 362.265C296.301 362.003 296.689 361.8 297.114 361.669Z" fill="#9796F0"/>
<path d="M364.874 230.904C364.874 230.904 356.82 186.165 355.082 175.278C353.344 164.391 355.082 158.829 359.978 155.262C364.874 151.695 387.323 144.077 402.39 146.133C417.457 148.189 424.814 158.788 426.87 170.806L423.369 172.276C423.369 172.276 427.849 213.973 426.221 228.396L364.874 230.904Z" fill="#9796F0"/>
<path d="M359.966 155.231C359.966 155.231 348.057 164.062 348.057 181.127L366.625 187.1L359.966 155.231Z" fill="#9796F0"/>
<path d="M423.651 172.111C423.651 172.111 430.395 192.137 428.547 200.413C426.699 208.688 409.918 219.791 386.588 223.492C386.588 223.492 376.221 225.013 370.248 220.881L361.178 218.701L363.773 211.947C370.685 212.05 377.492 213.393 383.736 215.885C383.736 215.885 406.025 207.393 413.027 200.865C413.027 200.865 412.243 187.583 408.363 178.249L423.651 172.111Z" fill="#FF8B7B"/>
<path d="M322.683 344.655L296.649 341.365L295.706 348.243L319.329 352.293L322.683 344.655Z" fill="#9796F0"/>
<path d="M346.918 127.66C345.306 131.611 345.507 135.926 347.481 139.76C346.564 136.702 346.734 133.485 347.971 130.507C349.195 127.691 351.215 125.213 352.781 122.54C354.348 119.867 355.413 116.753 354.372 113.905C354.152 113.339 353.663 112.682 352.965 112.774C352.267 112.867 352.12 113.36 351.924 113.802C351.249 114.973 350.732 116.204 350.382 117.472C350.211 118.449 350.382 119.415 350.211 120.412C349.636 122.921 347.934 125.203 346.918 127.66Z" fill="#9796F0"/>
<path d="M354.128 118.994C353.188 119.292 352.366 119.805 351.756 120.476C351.146 121.146 350.772 121.947 350.676 122.787C348.851 121.8 347.494 120.308 346.84 118.57C346.185 116.832 346.273 114.957 347.09 113.267C349.917 107.099 353.748 98.3509 365.156 99.6257C376.564 100.9 400.481 103.738 391.913 125.141C383.345 146.545 374.85 120.402 374.85 120.402L354.128 118.994Z" fill="#9796F0"/>
<path d="M379.085 158.994C368.693 158.449 373.1 150.924 373.577 148.138C373.703 146.923 373.388 145.704 372.671 144.643C372.187 143.855 371.596 143.116 370.909 142.443C366.355 142.443 361.313 141.929 357.702 139.359C353.663 136.532 352.059 131.258 351.398 127.074C350.88 123.203 350.789 119.301 351.129 115.416C351.129 114.84 351.227 114.275 351.251 113.71C351.41 111.479 351.582 109.258 351.68 107.079C351.68 107.079 361.753 105.218 370.75 106.945C377.408 108.22 382.084 112.867 384.103 120.176C384.847 122.96 385.221 125.804 385.217 128.657C385.401 140.808 391.068 142.936 393.283 146.503C395.499 150.071 389.501 159.508 379.085 158.994Z" fill="#FF8B7B"/>
<path d="M360.517 129.706L358.069 121.882L356.392 130.107C356.392 130.107 357.751 131.042 360.517 129.706Z" fill="#FF5652"/>
<path d="M367.714 131.042C367.714 131.042 366.184 133.797 361.313 134.28" stroke="#9796F0" stroke-width="0.5" stroke-linecap="round" stroke-linejoin="round"/>
<path d="M367.2 117.791C366.536 117.177 365.663 116.749 364.7 116.565C363.737 116.381 362.729 116.45 361.814 116.763" stroke="#9796F0" stroke-width="0.75" stroke-linecap="round" stroke-linejoin="round"/>
<path d="M363.332 121.625C363.418 122.417 363.969 123.023 364.556 122.982C365.144 122.941 365.56 122.263 365.486 121.471C365.413 120.68 364.85 120.073 364.262 120.114C363.675 120.155 363.259 120.834 363.332 121.625Z" fill="#9796F0"/>
<path d="M352.512 123.866C352.598 124.658 353.149 125.265 353.736 125.223C354.324 125.182 354.74 124.504 354.666 123.712C354.593 122.921 354.03 122.304 353.442 122.355C352.855 122.407 352.512 123.075 352.512 123.866Z" fill="#9796F0"/>
<path d="M350.945 113.833C354.871 113.079 358.557 111.624 361.753 109.567C365.352 119.559 380.676 119.919 384.507 119.919C382.5 112.61 377.677 107.531 371.043 106.256C362.059 104.529 351.459 106.524 351.459 106.524C351.361 108.713 351.092 111.612 350.945 113.833Z" fill="#9796F0"/>
<path d="M364.262 120.114L361.753 119.713C361.753 119.713 362.402 121.245 364.262 120.114Z" fill="#9796F0"/>
<path d="M353.944 122.396L351.435 122.006C351.435 122.006 352.084 123.527 353.944 122.396Z" fill="#9796F0"/>
<path d="M387.067 101.222C388.315 96.8787 384.927 92.4656 379.499 91.3652C374.071 90.2649 368.659 92.894 367.411 97.2375C366.163 101.581 369.551 105.994 374.979 107.095C380.407 108.195 385.819 105.566 387.067 101.222Z" fill="#9796F0"/>
<path d="M358.473 111.026L356.441 113.268C356.441 113.268 361.814 112.486 363.002 109.402C364.189 106.318 359.709 108.734 359.709 108.734L358.473 111.026Z" fill="#9796F0"/>
<path opacity="0.1" d="M377.775 139.996C376.46 141.815 374.724 143.395 372.671 144.643C372.187 143.855 371.596 143.116 370.909 142.443C373.33 141.92 375.645 141.095 377.775 139.996Z" fill="#9796F0"/>
<path d="M350.211 120.351C350.49 119.619 351.069 118.994 351.844 118.586C352.619 118.178 353.54 118.013 354.446 118.12" stroke="#9796F0" stroke-width="0.75" stroke-linecap="round" stroke-linejoin="round"/>
<path d="M381.374 121.173C381.709 120.753 382.09 120.361 382.512 120.001C383.944 118.778 386.282 117.174 388.449 118.068C391.068 119.096 390.517 122.232 389.783 124.123C389.191 125.817 387.839 127.25 386.013 128.122C383.43 129.243 379.587 128.647 379.611 125.727C379.652 124.096 380.266 122.512 381.374 121.173Z" fill="#FF8B7B"/>
<path d="M384.103 117.811C384.103 117.811 379.819 123.877 381.57 129.243C383.32 134.609 382.353 137.138 381.141 139.986C381.141 139.986 381.619 131.834 379.611 128.893C376.551 124.401 380.835 117.791 380.835 117.791L384.103 117.811Z" fill="#9796F0"/>
<path d="M367.555 99.7182C367.555 99.7182 378.644 100.828 385.315 104.653C385.315 104.601 379.526 98.135 367.555 99.7182Z" fill="#9796F0"/>
<path d="M230.651 220.531H300.419C301.127 220.532 301.826 220.397 302.463 220.136C303.101 219.876 303.659 219.497 304.095 219.028C304.532 218.559 304.835 218.013 304.983 217.431C305.131 216.849 305.118 216.246 304.947 215.669L292.536 174.126C292.285 173.278 291.702 172.524 290.881 171.985C290.06 171.447 289.049 171.155 288.007 171.155H218.239C217.531 171.155 216.831 171.29 216.194 171.551C215.557 171.811 214.999 172.19 214.563 172.659C214.126 173.128 213.823 173.674 213.675 174.256C213.527 174.838 213.539 175.44 213.71 176.018L226.048 217.56C226.303 218.42 226.896 219.181 227.732 219.721C228.568 220.26 229.597 220.546 230.651 220.531Z" fill="#9796F0"/>
<path d="M345.425 220.387H298.007V217.303H343.002C343.651 217.303 344.273 217.52 344.733 217.906C345.192 218.291 345.45 218.814 345.45 219.359V220.449L345.425 220.387Z" fill="#9796F0"/>
<path opacity="0.3" d="M230.651 220.531H300.419C301.127 220.532 301.826 220.397 302.463 220.136C303.101 219.876 303.659 219.497 304.095 219.028C304.532 218.559 304.835 218.013 304.983 217.431C305.131 216.849 305.118 216.246 304.947 215.669L292.536 174.126C292.285 173.278 291.702 172.524 290.881 171.985C290.06 171.447 289.049 171.155 288.007 171.155H218.239C217.531 171.155 216.831 171.29 216.194 171.551C215.557 171.811 214.999 172.19 214.563 172.659C214.126 173.128 213.823 173.674 213.675 174.256C213.527 174.838 213.539 175.44 213.71 176.018L226.048 217.56C226.303 218.42 226.896 219.181 227.732 219.721C228.568 220.26 229.597 220.546 230.651 220.531Z" fill="#9796F0"/>
<path d="M226.991 220.531H296.759C297.467 220.532 298.167 220.397 298.804 220.136C299.441 219.876 299.999 219.497 300.435 219.028C300.872 218.559 301.175 218.013 301.323 217.431C301.471 216.849 301.459 216.246 301.288 215.669L288.864 174.126C288.613 173.278 288.03 172.524 287.209 171.985C286.388 171.447 285.377 171.155 284.335 171.155H214.567C213.859 171.155 213.159 171.29 212.522 171.551C211.885 171.811 211.327 172.19 210.891 172.659C210.454 173.128 210.15 173.674 210.003 174.256C209.855 174.838 209.867 175.44 210.038 176.018L222.376 217.56C222.633 218.42 223.229 219.182 224.067 219.722C224.905 220.261 225.935 220.546 226.991 220.531Z" fill="#9796F0"/>
<path opacity="0.2" d="M226.991 220.531H296.759C297.467 220.532 298.167 220.397 298.804 220.136C299.441 219.876 299.999 219.497 300.435 219.028C300.872 218.559 301.175 218.013 301.323 217.431C301.471 216.849 301.459 216.246 301.288 215.669L288.864 174.126C288.613 173.278 288.03 172.524 287.209 171.985C286.388 171.447 285.377 171.155 284.335 171.155H214.567C213.859 171.155 213.159 171.29 212.522 171.551C211.885 171.811 211.327 172.19 210.891 172.659C210.454 173.128 210.15 173.674 210.003 174.256C209.855 174.838 209.867 175.44 210.038 176.018L222.376 217.56C222.633 218.42 223.229 219.182 224.067 219.722C224.905 220.261 225.935 220.546 226.991 220.531Z" fill="#FBC7D4" fill-opacity="0.66"/>
<path opacity="0.3" d="M258.766 194.625C259.733 198.09 257.787 201.451 254.408 202.119C251.03 202.788 247.481 200.526 246.501 197.062C245.522 193.597 247.481 190.236 250.859 189.567C254.237 188.899 257.787 191.212 258.766 194.625Z" fill="#9796F0"/>
<path d="M210.063 224.14L184.322 358.214H178.618L204.506 223.379L210.063 224.14Z" fill="#9796F0"/>
<path opacity="0.5" d="M210.063 224.14L184.322 358.214H178.618L204.506 223.379L210.063 224.14Z" fill="#FBC7D4" fill-opacity="0.66"/>
<path d="M247.933 358.214H242.217L217.346 224.129L222.915 223.4L247.933 358.214Z" fill="#9796F0"/>
<path opacity="0.5" d="M247.933 358.214H242.217L217.346 224.129L222.915 223.4L247.933 358.214Z" fill="#FBC7D4" fill-opacity="0.66"/>
<path d="M307.322 224.14L281.581 358.214H275.865L301.753 223.379L307.322 224.14Z" fill="#9796F0"/>
<path opacity="0.5" d="M307.322 224.14L281.581 358.214H275.865L301.753 223.379L307.322 224.14Z" fill="#FBC7D4" fill-opacity="0.66"/>
<path d="M393.234 358.214H387.531L362.647 224.129L368.216 223.4L393.234 358.214Z" fill="#9796F0"/>
<path opacity="0.5" d="M393.234 358.214H387.531L362.647 224.129L368.216 223.4L393.234 358.214Z" fill="#FBC7D4" fill-opacity="0.66"/>
<path d="M400.248 219.565H163.71V225.805H400.248V219.565Z" fill="#9796F0"/>
<path opacity="0.3" d="M400.358 219.565H305.021V225.805H400.358V219.565Z" fill="#9796F0"/>
<path d="M391.766 219.565H352.696C352.696 219.08 352.925 218.614 353.334 218.271C353.742 217.928 354.297 217.735 354.874 217.735H389.575C390.154 217.735 390.709 217.928 391.12 218.27C391.53 218.613 391.762 219.079 391.766 219.565Z" fill="#9796F0"/>
<path d="M377.58 202.078L372.316 212.688C371.349 212.523 370.48 212.41 369.868 212.338L375.352 201.287C375.477 201.035 375.716 200.834 376.017 200.73C376.317 200.626 376.655 200.627 376.955 200.732C377.256 200.837 377.494 201.037 377.618 201.29C377.742 201.543 377.741 201.826 377.616 202.078H377.58Z" fill="#9796F0"/>
<path d="M381.3 193.772C388.06 193.772 393.54 188.442 393.54 181.867C393.54 175.293 388.06 169.963 381.3 169.963C374.541 169.963 369.06 175.293 369.06 181.867C369.06 188.442 374.541 193.772 381.3 193.772Z" fill="#9796F0"/>
<path d="M408.363 178.208L407.531 175.73L426.27 167.886L426.907 170.857L408.363 178.208Z" fill="#9796F0"/>
<path opacity="0.1" d="M407.531 175.73L401.851 168.585L410.872 186.288L407.531 175.73Z" fill="#9796F0"/>
<path d="M356.514 183.841L356 181.158L348.057 178.619V181.158L356.514 183.841Z" fill="#9796F0"/>
<path opacity="0.1" d="M356.514 183.841C356.355 183.327 354.409 172.111 354.409 172.111V183.173L356.514 183.841Z" fill="#9796F0"/>
<path d="M372.341 150.03C372.341 150.03 366.98 160.084 379.611 159.765C392.243 159.446 395.425 151.613 396.062 145.784L392.121 144.643C392.121 144.643 389.844 152.867 381.3 154.501C372.757 156.136 373.467 148.652 373.467 148.652L372.341 150.03Z" fill="#9796F0"/>
<path opacity="0.1" d="M300.565 351.676L313.895 354.308L314.654 351.501L301.337 349.209L300.565 351.676Z" fill="#9796F0"/>
</svg>
